<svg data-name="Icon awesome-book-open" xmlns="http://www.w3.org/2000/svg" width="1em" height="1em" viewBox="0 0 50 38.89" size="20"><path fill="currentColor" data-name="Icon awesome-book-open" d="M47.069.004C42.312.274 32.857 1.257 27.02 4.83a1.335 1.335 0 00-.631 1.143V37.56a1.374 1.374 0 002.021 1.171c6.005-3.023 14.69-3.847 18.985-4.073A2.707 2.707 0 0050 31.996V2.669A2.721 2.721 0 0047.069.004zM22.98 4.83C17.144 1.257 7.689.275 2.932.004A2.723 2.723 0 000 2.669v29.328a2.706 2.706 0 002.606 2.662c4.3.226 12.985 1.051 18.991 4.076a1.37 1.37 0 002.015-1.168V5.958a1.307 1.307 0 00-.632-1.128z"></path></svg>