<svg xmlns="http://www.w3.org/2000/svg" width="1em" height="1em" viewBox="0 0 20.484 16.388"><defs><style>.grant{fill:currentColor;}</style></defs><path class="grant" d="M12.291,10.242h-4.1A1.024,1.024,0,0,0,7.17,11.266v4.1a1.024,1.024,0,0,0,1.024,1.024h4.1a1.024,1.024,0,0,0,1.024-1.024v-4.1A1.024,1.024,0,0,0,12.291,10.242ZM6.145,1.024A1.024,1.024,0,0,0,5.121,0h-4.1A1.024,1.024,0,0,0,0,1.024v4.1A1.024,1.024,0,0,0,1.024,6.145H4.088l2.342,4.1A2.042,2.042,0,0,1,8.194,9.218H8.2l-2.057-3.6V4.1h7.17V2.048H6.145ZM19.46,0h-4.1a1.024,1.024,0,0,0-1.024,1.024v4.1a1.024,1.024,0,0,0,1.024,1.024h4.1a1.024,1.024,0,0,0,1.024-1.024v-4.1A1.024,1.024,0,0,0,19.46,0Z"/></svg>