<svg xmlns="http://www.w3.org/2000/svg" width="55.583" height="50.578" viewBox="0 0 55.583 50.578">
<defs><style>.box1{isolation:isolate;}.box2{fill:#09d9bd;}.box3{fill:#f7d94f;}.box4{fill:#115a9e;}</style></defs>
<g class="box1">
<path class="box2" d="M240.5,255.115l-3-.258a14.1,14.1,0,0,0-1.079-3.407l2.3-1.938a1.427,1.427,0,0,0,.173-2.01l-2.968-3.527a1.426,1.426,0,0,0-2.01-.173l-2.3,1.938a14.119,14.119,0,0,0-3.172-1.646l.258-3a1.426,1.426,0,0,0-1.3-1.543l-4.594-.4a1.426,1.426,0,0,0-1.543,1.3l-.258,3a14.008,14.008,0,0,0-3.407,1.079l-1.939-2.3a1.427,1.427,0,0,0-2.01-.173l-3.528,2.968a1.426,1.426,0,0,0-.173,2.01l1.938,2.3a14.1,14.1,0,0,0-1.646,3.173l-3-.259a1.427,1.427,0,0,0-1.543,1.3l-.4,4.593a1.425,1.425,0,0,0,1.3,1.543l3,.258a14.126,14.126,0,0,0,1.079,3.408l-2.3,1.937a1.426,1.426,0,0,0-.172,2.01l2.968,3.527a1.426,1.426,0,0,0,2.01.173l2.3-1.938a14.1,14.1,0,0,0,3.174,1.646l-.257,3a1.424,1.424,0,0,0,1.3,1.543l4.592.395a1.425,1.425,0,0,0,1.545-1.3l.258-3a14.128,14.128,0,0,0,3.408-1.079l1.938,2.3a1.426,1.426,0,0,0,2.01.173l3.528-2.969a1.426,1.426,0,0,0,.172-2.009l-1.938-2.3a14.123,14.123,0,0,0,1.645-3.174l3,.258a1.425,1.425,0,0,0,1.543-1.3l.4-4.594A1.427,1.427,0,0,0,240.5,255.115Zm-12.11,8.036a7.514,7.514,0,1,1,.911-10.587A7.514,7.514,0,0,1,228.386,263.151Z" transform="translate(-205.296 -225.076)"/>
<path class="box3" d="M344.422,241.786a.818.818,0,0,0-1.035-.522l-1.645.543a8.053,8.053,0,0,0-1.339-1.555l.78-1.547a.818.818,0,0,0-.363-1.1l-2.365-1.193a.818.818,0,0,0-1.1.362l-.78,1.548a8.1,8.1,0,0,0-2.046-.154l-.541-1.643a.82.82,0,0,0-1.036-.522l-2.517.829a.82.82,0,0,0-.522,1.034l.542,1.645a8.111,8.111,0,0,0-1.554,1.339l-1.546-.78a.819.819,0,0,0-1.1.363l-1.192,2.365a.818.818,0,0,0,.362,1.1l1.546.78a8.067,8.067,0,0,0-.152,2.046l-1.645.542a.819.819,0,0,0-.521,1.035l.83,2.516a.819.819,0,0,0,1.034.522l1.645-.543a8.087,8.087,0,0,0,1.34,1.555l-.779,1.546a.818.818,0,0,0,.362,1.1l2.365,1.193a.82.82,0,0,0,1.1-.363l.779-1.546a8.064,8.064,0,0,0,2.046.152l.542,1.644a.82.82,0,0,0,1.034.522l2.516-.829a.822.822,0,0,0,.523-1.036l-.542-1.644a8.078,8.078,0,0,0,1.553-1.34l1.547.78a.82.82,0,0,0,1.1-.363l1.193-2.366a.82.82,0,0,0-.363-1.1l-1.547-.778a8.12,8.12,0,0,0,.154-2.046l1.644-.543a.82.82,0,0,0,.522-1.034ZM336.3,250.4a4.317,4.317,0,1,1,2.749-5.452A4.318,4.318,0,0,1,336.3,250.4Z" transform="translate(-289.709 -222.82)"/>
<path class="box4" d="M295.735,195.961a.692.692,0,0,0-.874-.442l-1.39.459a6.819,6.819,0,0,0-1.132-1.315l.66-1.306a.693.693,0,0,0-.307-.93l-2-1.008a.693.693,0,0,0-.931.305l-.659,1.307a6.854,6.854,0,0,0-1.729-.129l-.458-1.39a.692.692,0,0,0-.875-.441l-2.126.7a.691.691,0,0,0-.441.875l.458,1.388a6.855,6.855,0,0,0-1.314,1.133l-1.308-.66a.692.692,0,0,0-.93.308l-1.007,2a.693.693,0,0,0,.307.93l1.306.659a6.792,6.792,0,0,0-.128,1.729l-1.391.458a.692.692,0,0,0-.441.874l.7,2.127a.691.691,0,0,0,.874.441l1.39-.458a6.827,6.827,0,0,0,1.133,1.313l-.659,1.307a.692.692,0,0,0,.306.93l2,1.008a.691.691,0,0,0,.93-.307l.659-1.306a6.851,6.851,0,0,0,1.73.129l.457,1.389a.693.693,0,0,0,.875.441l2.126-.7a.694.694,0,0,0,.442-.874l-.458-1.39a6.842,6.842,0,0,0,1.313-1.132l1.307.659a.693.693,0,0,0,.93-.307l1.007-2a.692.692,0,0,0-.306-.93l-1.307-.658a6.866,6.866,0,0,0,.129-1.73l1.389-.457a.692.692,0,0,0,.441-.874Zm-6.862,7.281a3.649,3.649,0,1,1,2.323-4.607A3.647,3.647,0,0,1,288.874,203.242Z" transform="translate(-257.435 -191.038)"/>
</g></svg>