<svg xmlns="http://www.w3.org/2000/svg" width="21" height="16.573" viewBox="0 0 21 16.573"><defs><style>.vote{fill:currentColor;}</style></defs><path class="vote" d="M19.95,12.9h-2.1v2.368h.735a.306.306,0,0,1,.315.3v.592a.306.306,0,0,1-.315.3H2.415a.306.306,0,0,1-.315-.3v-.592a.306.306,0,0,1,.315-.3H3.15V12.9H1.05A1.122,1.122,0,0,0,0,14.088v3.551a1.122,1.122,0,0,0,1.05,1.184h18.9A1.122,1.122,0,0,0,21,17.639V14.088A1.122,1.122,0,0,0,19.95,12.9ZM16.8,15.272V3.445A1.133,1.133,0,0,0,15.74,2.25H5.263A1.136,1.136,0,0,0,4.2,3.445V15.272ZM6.93,8.539,7.767,7.6a.323.323,0,0,1,.5,0L9.621,9.146l3.124-3.492a.323.323,0,0,1,.5,0l.83.943a.43.43,0,0,1,0,.562L9.86,11.868a.323.323,0,0,1-.5,0L6.93,9.1a.43.43,0,0,1,0-.562Z" transform="translate(0 -2.25)"/></svg>