<?xml version="1.0" encoding="utf-8"?>
<!-- Generator: Adobe Illustrator 24.1.2, SVG Export Plug-In . SVG Version: 6.00 Build 0)  -->
<svg version="1.1" id="Layer_1" xmlns="http://www.w3.org/2000/svg" xmlns:xlink="http://www.w3.org/1999/xlink" x="0px" y="0px"
	 viewBox="0 0 253.3 108.9" style="enable-background:new 0 0 253.3 108.9;" xml:space="preserve">
<style type="text/css">
	.st0{fill-rule:evenodd;clip-rule:evenodd;fill:#FB5824;}
	.st1{fill:#FB5824;}
</style>
<g>
	<g>
		<g>
			<g>
				<path class="st0" d="M44.5,67.3C44.5,67.3,44.6,67.4,44.5,67.3c-0.1,0.1-0.1,0.1-0.1,0.2l-0.3,0.1c3,2.5,6.5,3.5,10,4.6
					c-0.2,0.2,0,0.1-0.2,0.1l0.2,0.2l0.1-0.3c0.2,0.2,0.1,0.1,0.1,0.3c0.2,0,0.8,0.2,1,0.1l0.2,0c-0.5-0.1-0.2,0-0.6-0.1l0.1-0.2
					c0.2,0,0.5,0.1,0.7,0.1l-0.2,0.1l0.2,0.2c0.2-0.1,0.1,0,0-0.2c0.2-0.1,0,0,0.3,0l0.3-0.1c-0.2-0.1,0,0-0.2-0.1L56,72.4
					c0.9,0.2,1.8,0.3,2.7,0.3c-0.7,0.2-1.5,0-2.1-0.1c0.1,0.4,0.9,0.5,1.5,0.5l0-0.1l-0.2,0l-0.1-0.1l0-0.1c0.7,0.1,0.5,0.2,0.8,0.3
					l0.7-0.2c1.3,0.4,2.8-0.3,3.9-0.5c0.1,0,0.3,0,0.4-0.1c0.5,0.2,2.2-0.7,2.8-1.1c1-0.5,1-0.2,2.3-1.2c2.2-1.4,4.6-4.6,5.5-6.9
					l0.1-0.2c0.2-0.4,0.3-0.8,0.5-1.2c0.2-0.6,0.6-0.7,0.6-1.3l-0.1-0.1L75.3,61l-0.2,0c0.2-0.5,0.3-1,0.5-1.4l0.1,0
					c0,0.3,0,0.1-0.1,0.3l0.1,0.2c0.2-0.9,0-0.6,0.2-1.6c0.2,0.2,0,0.3,0,0.7c0.3-0.4,0.8-2,0.4-2.2c0.2-0.2,0-0.1,0.3-0.1
					c-0.1-0.7,0.2-1.3,0.3-2c0-0.2,0.1-0.6,0.1-0.9c-0.2,0.1-0.1,0-0.2,0.2c-0.1-0.2,0-0.7-0.1-1l0-0.2c-0.1,0.2-0.1,0.2-0.1,0.6
					l-0.1,0.1l-0.3-0.1c0-0.7,0-1.5-0.1-2.2c-0.2-1.2-0.7-1.4-1-2.6c0,0-0.2,0.4-0.2,0.4c0-0.2-0.1-0.5-0.2-0.7l-0.1,0l0.1,0.3
					c-0.1,0-0.1,0.1-0.3-0.2c-0.1,0.3-0.2,0.7-0.1,1.2l-0.1,0c-0.2-1.1-0.6-2.2-1-3.2l0,0c0.2,0.5,0.3,0.9,0.4,1.2
					c-0.3-0.9-1-1.8-1.5-2.6c-0.4-0.5-0.3-1.1-0.7-1.7c-0.9-1.2-2.1-2-3.3-2.8L68,40.1c-0.9-0.3-3.5-1.5-5.1-1.8
					c-3.3-0.7-5.2-1.4-9.2-0.9c-3.2,0.4-6.2,1.8-8.8,3.7l-0.6,0.7c-0.8,1.1-2,2.1-2.8,3.4c-1.2,1.6-1.5,3.5-1.9,5.4
					c-0.3,1.4-0.5,2.7-0.6,4.1c0,3.5,0.9,7.2,3,10C42.7,65.6,43.5,66.5,44.5,67.3 M73.3,47.2c0.2,0.2,0.4,0.5,0.5,0.8
					C73.6,47.8,73.5,47.6,73.3,47.2z M70.8,51.4l-0.2,0.1c0-0.1-0.1-0.1-0.1-0.2l0.1,0l-0.1-0.1c0.1,0,0.2,0,0.2-0.1
					C70.8,51.2,70.8,51.2,70.8,51.4C70.8,51.3,70.8,51.3,70.8,51.4L70.8,51.4C70.8,51.3,70.8,51.3,70.8,51.4z M70.7,50.8L70.7,50.8
					l-0.1-0.2c0,0,0,0,0,0C70.7,50.7,70.7,50.7,70.7,50.8z M70.6,51.5L70.6,51.5L70.6,51.5c0.1,0,0.1,0.1,0.1,0.2
					C70.7,51.6,70.7,51.6,70.6,51.5z M70.7,45.5L70.7,45.5L70.7,45.5C70.8,45.5,70.8,45.5,70.7,45.5C70.8,45.5,70.8,45.5,70.7,45.5z
					 M71.3,45.4c-0.2-0.1-0.3-0.2-0.4-0.4C71,45.1,71.1,45.2,71.3,45.4z M67.3,50.5 M67.8,52.7l-0.2,0l0.2-0.2
					c-0.3,0.1-0.6,0.3-0.7,0.6l-0.1,0c0,0,0,0,0-0.1c0.1,0.2-0.2,0.8-0.2,1c-0.2,1.2,0,2.5-0.2,3.7c-0.7,3-4.1,5.5-6.9,5.8
					c-2.7,0.2-5.5-0.3-7.7-1.9c-1.4-1.1-2.7-3.5-3.3-5.1c-1.3-3.4,0.5-7.6,3.7-9.3c2.7-1.5,6.1-1.4,8.9-0.2c2.3,1,3,3,4.4,4.8
					c0.1,0,0.1,0,0.2,0c0,0,0-0.1,0-0.2c0.4,0.5,0.8,0.9,1.1,1.5c0,0,0,0,0-0.1c0.1-0.4,0.1-0.8,0.4-0.9l0,0.2l0.1,0l0.1,0
					c0.1-0.2,0.2-0.4,0.2-0.6l0,0 M68.1,52L68.1,52"/>
			</g>
			<path class="st0" d="M38.6,51.6"/>
		</g>
		<g>
			<g>
				<path class="st1" d="M149.3,62.2c0.7-1.6,2-2.4,3.8-2.4c1,0,1.8,0.2,2.4,0.7c0.7,0.5,1.1,1.1,1.4,2c0.7-1.8,2-2.7,3.9-2.7
					c1.3,0,2.4,0.4,3.1,1.3c0.7,0.9,1.1,2.1,1.1,3.6v6.6h-1.8v-6.6c0-1.1-0.3-1.9-0.8-2.4c-0.5-0.5-1.2-0.8-2.2-0.8
					c-1,0-1.7,0.4-2.2,1.2c-0.5,0.8-0.8,1.9-0.8,3.2v5.4h-1.8v-6.6c0-1.1-0.3-1.9-0.8-2.4c-0.5-0.5-1.2-0.8-2.2-0.8
					c-0.9,0-1.7,0.4-2.3,1.2c-0.6,0.8-0.9,1.8-0.9,3.2v5.5h-1.9V60h1.6L149.3,62.2z"/>
				<path class="st1" d="M173.3,70c1.5,0,2.4-0.7,2.7-2h1.9c-0.2,1.1-0.7,2-1.5,2.6c-0.8,0.6-1.8,0.9-3.1,0.9
					c-1.5,0-2.7-0.5-3.7-1.6c-0.9-1.1-1.4-2.5-1.4-4.3c0-1.8,0.5-3.2,1.4-4.3c0.9-1.1,2.2-1.6,3.8-1.6c1.6,0,2.7,0.6,3.5,1.8
					c0.8,1.2,1,2.7,0.8,4.5h-7.7c0,1.2,0.3,2.1,0.8,2.9C171.5,69.7,172.3,70,173.3,70z M174.7,61.5c-0.4-0.2-0.8-0.3-1.3-0.3
					c-1,0-1.7,0.3-2.3,1s-0.9,1.5-1,2.4h6C176.1,63.1,175.6,62,174.7,61.5z"/>
				<path class="st1" d="M183.3,62.2c0.7-1.6,2-2.4,3.8-2.4c1,0,1.8,0.2,2.4,0.7c0.7,0.5,1.1,1.1,1.4,2c0.7-1.8,2-2.7,3.9-2.7
					c1.3,0,2.4,0.4,3.1,1.3c0.7,0.9,1.1,2.1,1.1,3.6v6.6h-1.8v-6.6c0-1.1-0.3-1.9-0.8-2.4c-0.5-0.5-1.2-0.8-2.2-0.8
					c-1,0-1.7,0.4-2.2,1.2c-0.5,0.8-0.8,1.9-0.8,3.2v5.4h-1.8v-6.6c0-1.1-0.3-1.9-0.8-2.4c-0.5-0.5-1.2-0.8-2.2-0.8
					c-0.9,0-1.7,0.4-2.3,1.2c-0.6,0.8-0.9,1.8-0.9,3.2v5.5h-1.9V60h1.6L183.3,62.2z"/>
				<path class="st1" d="M208.1,61.6c-1.8,0-2.7,1.4-2.7,4.2v5.5h-1.9V60h1.9v2.2c0.6-1.6,1.6-2.3,3-2.3c0.5,0,0.9,0.1,1.3,0.2
					l-0.1,1.8C209,61.7,208.6,61.6,208.1,61.6z"/>
				<path class="st1" d="M213.5,57.4c-0.4,0-0.7-0.1-0.9-0.3c-0.2-0.2-0.3-0.5-0.3-0.8c0-0.4,0.1-0.6,0.3-0.8
					c0.2-0.2,0.5-0.3,0.9-0.3c0.4,0,0.7,0.1,0.9,0.3c0.2,0.2,0.3,0.5,0.3,0.8c0,0.4-0.1,0.6-0.3,0.8
					C214.2,57.3,213.9,57.4,213.5,57.4z M212.6,60h1.9v11.3h-1.9V60z"/>
			</g>
			<g>
				<g>
					<path class="st0" d="M84.2,43.1C84.2,43.1,84.2,43.1,84.2,43.1c-0.1-0.1-0.1-0.1,0-0.1c0.1-0.1,0.1-0.1,0-0.2l-0.1,0
						c-0.1,0.1,0,0.1-0.2,0.1L83.9,43l-0.1,0c0.1-0.1,0.1-0.1,0.3-0.2l-0.2,0c0.3-0.4,0.1-0.9,0-1.3l0.3,0c-0.2-0.7,0.2-1.8,0.6-2.4
						l-0.3-0.1l0.2-0.3c-0.3-0.1-0.2,0-0.2-0.2c-0.2,0.1-0.1,0-0.4,0.1l-0.1,0c0.2-0.4,0-0.6-0.3-0.9c-0.2-0.2,0.3-0.8,0.4-1
						c-0.3,0-0.2,0-0.5,0c0,0.4-0.4,0.9-0.6,1.4l-0.1,0l0.4-0.9l-0.1,0c-0.3,0.1-0.5,0.9-0.3,0.9L83,38.1L82.6,38l0.1-0.1l-0.1,0
						l-0.3,0.3l-0.1,0l-0.1,0l0-0.1c-0.5,0.1-0.5,0.8-0.7,1.2c-0.4,1-0.2,2.1-0.7,3.1c-0.4,0.8-0.1,1.8-0.3,2.7
						c-0.3,1.2-0.4,2.5-0.1,3.7c0.3,1.3-0.5,2.8-0.1,4.1l0.3,3l0.2,0.8c-0.3,1,0,2.4,0.4,3.3c0.1,0.3,0,1.5-0.2,1.5
						c0,0.1,0,0.1,0.2,0.1l-0.1,4.2l0.2,2.3c-0.1,0.4,0,0.9,0.2,1.4l-0.2,0.2c0,0,0.8,1.5,0.8,1.6l0.2,0c0-0.1,0,0,0-0.1
						c0.3,0.3,0.4,0.4,0.6,0.8l0.1,0c0.1-0.1,0.5-0.2,0.8-0.2l-0.2,0.1l0.2,0l0-0.1l0,0.1l0.2,0c0-0.2-0.1,0.4-0.2,0
						c-0.3,0.2,0.2,0,0,0.1c0.1,0,0.2,0,0.2,0c0.1,0,0.1-0.1,0.2-0.1L84,71.7c0.6,0.2,0.7,0,0.6,0.3c0.1,0-0.3,0,0,0
						c0,0.3-0.1,0-0.1,0.3l0.1,0l0.3-0.1l0.1,0.1c0.2,0.2,0-0.3,0,0l-0.4,0l-0.1,0c0.7,0,1.2,0,1.7-0.1l0.1,0.1l0.3,0l-0.1-0.1
						l0.5-0.1l0.1-0.2l-0.3,0c0.4-0.3,0.1,0.1,0-0.2c0.3,0,0,0,0.1-0.1l0.3,0l0.3-0.1c0.3,0-0.1,0.1,0.2,0l0.1,0.1
						c1.1-0.1,0.2-0.3,0.6-0.6c0.3-0.3,0.9-0.5,0.5-1c0.2,0,0.2,0.3,0.3,0.3c0.2-0.3-0.2-0.7-0.3-0.9l0.1,0l0.1,0.1l0.2,0L89,69.5
						c0.2,0,0.3,0.1,0.3,0.3l-0.2,0c0.3,0.2,0.3,0.7,0.4,1l0.1-0.1l0.2,0.1l0.1,0c0.2-0.1,0.2-0.3,0.2-0.5c0.4,0.1,0.4,0.4,0.4,0.7
						l0.1,0l0.1,0c0.3-0.4,0-0.8-0.1-1.3c-0.1-0.2,0.3-0.3,0.3-0.5c-0.1-0.4-0.4-0.8-0.5-1.2l0.1-0.2c-0.5-0.4-0.8-2.2-0.6-3.1
						c0.4-1.3-0.2-3.3-0.1-4.6l-0.3-0.5c0.1-0.6,0.2-2.3-0.2-2.6c0.2,0,0-1,0.2-1.4l0.1-1.4c0.3-1.1,0.4-2.2,0.4-3.3
						c-0.2,0-0.1,0-0.2-0.1c-0.2,0.1-0.1,0.4-0.1,0.5l-0.1,0c-0.3-0.3,0.1-0.6,0-0.7c0,0-0.1,0-0.2-0.1l0.2,0l0-0.2
						c-0.1,0,0,0-0.2,0c-0.3-0.6,0.2-1.4,0.1-2c0.1-0.7,0.3-2.3,0.4-3c0.2,0.3-0.2,2.7-0.2,2.7c0,0.1,0,0.1,0.2,0.1
						c-0.1,0.2-0.4,0.4-0.4,0.7l0.1,0l0-0.1l0.2,0.1l0.1,0c-0.1-0.1-0.1-0.1-0.2-0.2c0.1,0,0.1-0.1,0.2,0l0.1-0.4
						c0.3,0.2,0.1,0.7,0,0.8l0.2,0c-0.1,0.1,0,0-0.2,0.1c0.1,0.1,0,0.1,0.2,0.1c-0.1,0.1,0,0-0.2,0.1c0-0.1,0,0-0.1-0.1
						c0,0.1,0,0.1,0.2,0.1l-0.3,0c0.1,0.1,0,0,0.2,0l0.1,0.1c-0.1,0,0,0-0.2,0c-0.2,0.1-0.1,0.2-0.1,0.4c0.2,0,0,0,0.3,0
						c-0.2,0.7,0.7,2.3,0.4,3.2l-0.1,2c-0.3,0.6,0,1.4-0.1,2c-0.2,0.8-0.3,1.9-0.1,2.7l-0.1,2.7l0.1,0c0.3-0.2,0.1-0.6,0.1-0.8
						l0-3.3l0.1-2.9c0.3-1.4,0.5-2.7,0.1-3.9l-0.3-2.6c0-0.3,0.2-0.4,0.1-0.7c0.2,0,0.1,0,0.2,0.1l0.1-0.1l-0.3,0
						c0.1-0.1,0.1,0,0.3,0c0-0.1,0.1-0.2-0.1-0.3l-0.1-0.1c0,0.2,0,0.1,0.1,0.2l-0.2,0l0-0.2l0.2,0l0.2-0.1c-0.1,0,0,0-0.2,0
						c-0.1-0.1-0.1,0,0-0.1l-0.2-0.1c-0.1,0.1,0,0,0,0.1l-0.1,0l0.1-0.8c0.2,0.2,0,0.4,0,0.6c0.3-0.1,0.4-0.3,0.3-0.4l-0.1,0
						l0.1,0.1c0,0-0.1,0.1-0.2,0c0-0.2,0.2-0.2,0.3-0.2l-0.2-0.2c0.5-0.4-0.2-0.8,0.1-1.2c0.4-0.1-0.2-0.8,0.1-1
						c0.2-0.1,0.4-2.4,0.3-2.8l0.3,0l0-0.2c-0.2,0.1-0.1,0-0.1,0.1l-0.2,0l0-0.4l0.3,0c0-0.2,0.1-0.3-0.1-0.4l-0.1,0l0.1,0.2l-0.2,0
						l0-0.4l0.1,0c0.1,0.1,0.1,0,0,0.1l0.2,0c0-0.3-0.2-0.2-0.2-0.5c0.2,0,0,0.1,0.2,0.2c0.1-0.1,0.3-0.6,0-0.7c0.1-0.1,0,0,0.3,0
						c-0.2-0.3,0.2-0.5,0.1-0.9c-0.2,0-0.1,0-0.2,0c-0.1,0-0.1-0.2-0.2-0.2l0,0c-0.1,0.1-0.1,0.1,0,0.2l-0.1,0l-0.3,0l0-0.6
						c-0.1-0.3-0.5-0.4-0.4-0.7l-0.3,0.1l0-0.2l-0.1,0l0,0.1c-0.1,0-0.1,0-0.2-0.1c-0.2,0.1-0.4,0.2-0.4,0.3l-0.1,0l0.2-0.9l-0.1,0
						c-0.1,0.2-0.2,0.3-0.4,0.5l-0.1,0c-0.2-0.2-0.3-0.8-0.1-1l0,0l-0.3,0.1l-0.4-0.1c-0.2-0.1-0.2-0.3-0.2-0.5l-0.1,0l-0.1,0.3
						c-0.2,0-0.2,0.1-0.4,0l-0.1,0.2l-0.3,0l0.3-0.2l0,0l-0.3,0.1c-0.1,0,0,0-0.2,0c-0.2,0.1-0.6,0.4-0.6,0.6l-0.2-0.2
						c-0.1,0-0.3,0-0.6,0c0,0.2-0.1,0.4-0.2,0.5l0.2,0l0-0.2c0.1,0.1,0.1,0.1,0,0.2c0.1,0.1,0,0.1-0.2,0.1c0-0.1,0,0-0.1-0.1
						c-0.1,0.1,0,0-0.1,0.1l0.3,0c-0.2,0.1-0.2,0.1-0.4,0.2c0,0.1,0,0.1,0.2,0.1l0,0.4l-0.3,0l-0.1,0l0.3,0l0.1,0l-0.1,0.6
						c-0.2,0-0.1,0-0.3-0.1c-0.1,0.1,0,0,0,0.1l0,0.1l0.3,0c-0.1,0.2-0.1,0.4-0.4,0.5l0,0c0.2,0,0.1,0,0.3-0.1
						c0,0.1-0.1,0.2,0.1,0.3l-0.2,0l0-0.1l-0.2,0c-0.2,0.7-0.6,1.6-0.4,2.2l0-0.1c0.2,0.1,0,1.2-0.2,1.1l0-0.3l0,0
						c-0.2,0.1-0.1,0.3-0.1,0.4l-0.1,0.1"/>
				</g>
				<g>
					<path class="st0" d="M97.9,56.9 M131.4,62.8 M116.7,61.8C116.7,61.9,116.7,61.9,116.7,61.8l0.1,0c0,0,0,0,0,0
						c0.1,0,0.2,0,0.3,0c0,0.1,0.1,0.2,0.1,0.3l-0.3,0c0.1,0.1,0.1,0.3,0.1,0.5c-0.1,0-0.2,0-0.3,0c0-0.1,0-0.3,0-0.4l0,0.1
						c-0.1,0-0.1-0.2-0.1-0.4C116.6,61.8,116.6,61.8,116.7,61.8z M99.1,67.7L99,68l-0.4-0.2c0,0.3,0,0.2-0.2,0.2
						c0.1,0.2,0,0.1,0.2,0.3l0,0.1c-0.5-0.1-0.7,0.1-0.9,0.4c-0.2,0.2-0.8-0.2-1.1-0.3c0.1,0.3,0.1,0.2,0,0.5c0.4,0,1,0.3,1.5,0.4
						l0,0.1l-0.9-0.3l0,0.1c0.1,0.2,1,0.3,1,0.2l0.1,0.1l0,0.3l-0.2-0.1l0,0.1l0.4,0.3l0,0.1l0,0.1l-0.1,0c0.2,0.5,0.9,0.4,1.3,0.5
						c1,0.3,2.2-0.1,3.2,0.3c0.9,0.3,2.3-0.1,3.3-0.1c0.7,0.1,1.6,0.1,2.3,0c0.1,0,0.1,0,0.1,0c0.1,0,0.3,0,0.4-0.1
						c1.3-0.3,2.8,0.6,4.2,0.1l3.1-0.2l0.8-0.2c1,0.3,2.5,0,3.5-0.3c0.3-0.1,1.5,0,1.6,0.2c0.1,0,0.1,0,0.1-0.2l4.3,0.1l1.8-0.2
						c0.4,0.1,0.9,0,1.4-0.2l0.2,0.2c0,0,1.5-0.7,1.7-0.8l0-0.2c-0.1,0,0,0-0.1-0.1c0.3-0.3,0.4-0.4,0.8-0.6l0-0.1
						c-0.1-0.1-0.2-0.5-0.2-0.8l0.1,0.2l0-0.2l-0.1-0.1l0.1,0l0-0.2l-0.3-0.5c0-0.1,0-0.1-0.1-0.4c0.3,0,0.4,0.4,0.8,0.4l0-0.1
						l-0.6-0.4l0-0.1c0.2-0.2,0.4,0,0.6,0l0,0.4l0,0.1c0-0.7,0-1.2-0.1-1.7l0.1-0.1l0-0.3l-0.1,0.1l-0.1-0.5l-0.2-0.1l0,0.3
						c-0.3-0.4-0.4,0.1-0.7,0.2c0-0.3,0-0.3-0.1-0.4l0,0.2l-0.1-0.1c0-0.3,0.1-0.4,0-0.8l0.6-0.3c-0.1-1.1-0.3-0.2-0.6-0.6l-0.5-0.7
						l-0.1-0.1l0.2,0.3l0-0.1c-0.1-0.3-0.3-0.2-0.5-0.2c0.2-0.4,0.5-0.4,0.7-0.4l0-0.1l0-0.1c-0.4-0.3-0.8,0-1.3,0.1
						c-0.2,0.1-0.3-0.3-0.5-0.3c-0.3,0-0.6,0.2-0.9,0.4l-0.1,0c0,0,0,0.1,0,0.1c-0.1,0-0.1,0.1-0.2,0.1l-0.2-0.1
						c-0.9,0.1-1.5,0.1-2.7,0.1l-2.5-0.1l0-0.1c-0.2-0.3-0.6-0.1-0.9-0.1c-0.7,0-2.1,0-3.1,0c0-0.1,0-0.1,0-0.2c0,0,0,0,0,0
						c0-0.2,0.1-1.5,0.1-1.7c0.3-0.8-0.3-1.5-0.4-2.3c0,0,0-0.1,0-0.1c0.1-0.4,0.1-0.5,0.3-1.1c0-0.7-0.1-1.2-0.1-1.8
						c-0.1-0.4-0.1-1.6-0.4-2.1c0.2-0.2,0.2-0.5,0.1-0.7c-0.1-0.3-0.2-0.6-0.4-0.8c-0.1-0.1,0.1-0.7,0.3-0.7c0-0.1,0-0.1-0.1-0.1
						l0.2-0.9c0,0,0.1,0.1,0.2,0.1c-0.1,0.1,0,0.1-0.2,0.1l0,0.1l0.2-0.2c0,0.2,0,0.1-0.1,0.3c0.1,0,0.2,0.2,0.4,0.1l0.1,0
						c-0.2-0.1-0.1,0-0.2-0.1l0.1-0.2l0.3,0.2l-0.1,0.1l0,0.2c0.1-0.1,0,0,0.1-0.1c0.1,0,0,0,0.1,0.1l0.2-0.1c0-0.1,0,0,0-0.1l0-0.1
						l0.9,0.7c-0.4,0-0.5-0.3-0.7-0.5c-0.1,0.3,0.1,0.5,0.3,0.6c0.1-0.1,0.1-0.1,0-0.1l0-0.1l0,0c0.2,0.2,0.1,0.3,0.1,0.4l0.3,0
						c0.2,0.6,1.1,0.8,1.4,1.1c0,0,0.1,0.1,0.1,0.1c-0.1,0.4,1,0.5,1.1,0.9c0,0.3,2.5,2.2,3,2.4l-0.2,0.2l0.2,0.2
						c0-0.2,0-0.1-0.1-0.2l0.1-0.2l0.4,0.3l-0.2,0.2c0.2,0.2,0.2,0.2,0.5,0.3l0.1-0.1l-0.2,0l0.1-0.1l0.5,0.4l0,0
						c-0.1,0-0.1,0-0.1-0.1l-0.1,0.1c0.3,0.2,0.3,0,0.6,0.2c-0.2,0.2-0.1,0-0.3,0c0.1,0.2,0.5,0.8,0.8,0.5c0,0.2,0,0-0.1,0.2
						c0.4,0,0.5,0.6,0.9,0.7c0.1-0.1,0-0.1,0-0.2c0.1,0,0.2,0.1,0.4,0.1l0,0c0-0.1,0-0.1-0.2-0.2l0-0.1l0.2-0.2l0.6,0.5
						c0.4,0.2,0.5,0.5,0.7,0.9l0.1-0.3l0.2,0.2l0,0l-0.1-0.1c0.1-0.1,0-0.1,0.2-0.1c0-0.2,0-0.4-0.1-0.6l0.1-0.1l0.9,0.9l0,0
						c-0.2-0.2-0.3-0.4-0.3-0.7l0,0c0.4,0,1.1,0.4,1.2,0.7c0,0,0.1-0.3,0.1-0.3l0.3-0.3c0.3-0.1,0.4,0.3,0.7,0.4l0.1-0.1l-0.4-0.6
						c0-0.2,0.1,0,0.2-0.1l-0.2-0.5l0.2,0l0.1,0.4l0,0l0.1-0.3c0-0.1,0,0,0.1-0.1c0-0.3-0.1-0.8-0.3-1l0.3,0
						c0.1-0.1,0.2-0.3,0.3-0.5c-0.2-0.2-0.4-0.4-0.5-0.6l-0.1,0.2l0.2,0.2c-0.1,0-0.2-0.3-0.3-0.4c-0.1,0-0.1,0,0-0.2
						c0.1,0.1,0,0.3,0.1,0.3c0-0.1,0-0.1-0.1-0.2l-0.2,0c0-0.3,0-0.3,0-0.4c-0.1-0.1-0.1-0.1-0.2,0.1l-0.4-0.3l0.1-0.3l0-0.1
						l-0.1,0.2l0,0l-0.6-0.5c0.1-0.2,0.1-0.1,0.2-0.2c0-0.1,0,0,0-0.1l-0.1-0.1l-0.1,0.2c-0.2-0.2-0.4-0.4-0.4-0.8l0,0
						c-0.1,0.2,0,0.1-0.1,0.3c-0.1-0.1-0.2-0.2-0.3-0.2l0.1-0.2l0.2,0.1l0.1-0.1c-0.7-0.7-1.5-1.7-2.3-2.1l0.1,0.1l0.1-0.4
						c0.9,0.4,1.9,1.5,2.4,2.4l0.3-0.1l0.2,0.5c0.2-0.2,0.1-0.2,0.3,0c0-0.2,0.1-0.1,0.1-0.4l0,0c0.4,0.5,0.8,0.7,1.2,0.7
						c0.3,0,0.7,0.9,0.9,1.1c0.1-0.3,0.1-0.2,0.3-0.4c-0.4-0.3-0.8-1.1-1.2-1.6l0-0.1l0.8,1l0.1-0.1c0-0.3-0.7-1.1-0.9-0.9l0-0.1
						l0.3-0.2l0.1,0.2l0.1-0.1l-0.2-0.5l0.1-0.1l0,0l0.1,0.1c0.2-0.5-0.6-1.1-0.9-1.5c-0.8-1.1-2.3-1.9-3-3
						c-0.7-0.9-1.9-1.5-2.9-2.4c-1.2-1.1-2.6-2.3-4-2.9c-0.8-0.4-1.5-1-2.2-1.7c-0.2-0.2-0.6-0.5-0.8-0.6c-1.1-0.7-2.1-0.8-3.3-2
						c-0.5-0.2-1.9-0.7-2.4-0.9l-0.4-0.1l-0.4,0.1l-1.7,0.4c-1.2,0.3-2.3,1.1-3.4,1.8c-1.6,0.7-3.6,2-4.7,3.3
						c-0.3,0.3-1.7,1.1-1.9,1c-0.2,0.1-0.2,0.1-0.1,0.2l-4.9,3.1l-1.9,1.5c-0.6,0.2-1,0.7-1.5,1.2l-0.3,0c0,0-1.3,1.8-1.4,1.9
						l0.1,0.2c0.1,0,0-0.1,0.1,0c-0.2,0.5-0.2,0.7-0.6,1.1l0.1,0.1c0.2,0,0.5,0.3,0.7,0.5l-0.2-0.1l0.1,0.2l0.1,0l-0.1,0.1l0.1,0.1
						l0.6,0.2c0.8,0.5-0.5,0.3-0.8,0.5l0,0.1l0.8-0.1l0,0c-0.1,0.3-0.4,0.3-0.7,0.4l-0.3-0.3l-0.1,0c0.4,0.6,0.7,1,1.1,1.4L94.1,56
						l0.1,0.2l0.1-0.1l0.3,0.3l0.3-0.1l-0.1-0.2c0.5,0.1,0.4-0.4,0.7-0.7c0.2,0.2,0.1,0.2,0.3,0.2l-0.1-0.1l0.1,0
						c0.2,0.3,0.2,0.4,0.4,0.6c0,0-0.7,0.2-0.5,0.7c0.1,0.3,2.2,0.6,2.2,0.6l0.1,0L98,57.6l0,0c0.3,0.1,0.5,0,0.7-0.2
						c0,0.4-0.2,0.7-0.6,0.9l0,0.1l0,0c0.6-0.1,0.9-0.6,1.4-1.1c0.2-0.2,0.5,0,0.7-0.1c0.4-0.4,0.6-0.9,1-1.3l0.2,0
						c0.2-0.7,1.5-2,2.6-2.4c1.6-0.6,3.6-3.1,5.2-4l0.3-0.5c0,0,0,0,0.1,0c0,0,0,0-0.1,0l0,0c0,0,0,0,0,0l0,0l0.1-0.1
						c0.1-0.1,0.3-0.2,0.5-0.3c0,0.2,0,0.3,0,0.5c-0.1,0.1-0.2,0.2-0.3,0.2c0,0-0.1,0.1-0.4,0.2c0,0,0,0,0,0l0,0
						c-0.8,0.5-2.7,1.7-2.7,1.7l0,0c0.4,0.1,0.7-0.4,1-0.5c0.3-0.2,0.7-0.4,1-0.7l0,0c0,0,0,0,0,0c0.2-0.1,0.3-0.2,0.5-0.3l0,0
						c0,0,0.1,0,0.1,0l0-0.1l-0.1,0c0.2-0.1,0.3-0.2,0.5-0.3c-0.1,0.1,0,0.3-0.1,0.4l0.2-0.1l0-0.3c0,0,0,0-0.1,0
						c0,0,0.1-0.1,0.1-0.1c0,0.3,0.1,0.6,0.1,0.9l-0.1,0.5l0.2,0.3c-0.1,0.3-0.4,1.4,0.1,1.6c-0.2,0-0.1,0.6-0.2,0.8
						c-0.1,1.1-0.6,2.5-0.3,3.5c0.2,0,0.1,0,0.2,0c0.2-0.1,0.1-0.3,0.1-0.3l0.1,0c0.3,0.1-0.1,0.4,0.1,0.5c0,0,0.1,0,0.2,0l-0.2,0
						l0,0.1c0.1,0,0,0,0.2,0c0.4,0.3-0.1,0.9,0.1,1.3c0,0.3,0,0.6,0.1,0.9l0,0l0,0c0,0.3,0,1.5,0.1,1.8c0,0,0,0,0,0h0
						c0,0.1,0,0.2,0,0.3c-0.3-0.2-0.4-2.4-0.3-2.8c0-0.1,0-0.1-0.2,0c0.1-0.1,0.3-0.4,0.3-0.5l0,0l0,0l-0.2,0l0,0
						c0.1,0,0.1,0.1,0.2,0.1c-0.1,0-0.1,0-0.1,0l0,0.3c-0.3-0.1-0.2-0.4-0.1-0.5l-0.2,0.2c0,0.2-0.2,0.3,0,0.5c-0.2,0-0.1,0-0.2,0
						l-0.1,0.1l0.3-0.1c-0.1,0.1-0.1,0-0.3,0.1c0,0,0,0.2,0.2,0.2l0.1,0c0-0.1,0,0-0.1-0.1l0.2,0l0,0.1l-0.2,0l-0.1,0.1
						c0.1,0,0,0,0.1,0c0.1,0,0,0,0,0.1l0.2,0c0.1-0.1,0,0,0-0.1l0.1-0.1c0,0.2,0,0.4,0.1,0.6c-0.3-0.1-0.1-0.3-0.1-0.4
						c-0.3,0.1-0.3,0.3-0.3,0.4l0.1,0l-0.1,0c0,0,0.1-0.1,0.1-0.1c0,0.1-0.1,0.1-0.2,0.2l0.2,0.1c-0.3,0.4,0.2,1.5,0.2,1.7
						c0,0,0,0,0,0l-0.9,0.1c-0.3,0-0.4-0.2-0.7-0.1c0-0.2,0-0.1,0.1-0.2l-0.1-0.1l0,0.3c-0.1-0.1-0.1-0.1,0-0.3
						c-0.1,0-0.4-0.1-0.5,0.1l-0.1,0.1c0.2,0,0.1,0,0.3-0.1l0,0.2l-0.4,0l0.1-0.2l-0.1-0.2c-0.1,0.1,0,0,0,0.2c-0.1,0.1,0,0.1-0.1,0
						c0,0,0,0,0,0l-0.1,0.2c0.1,0.1,0,0,0.1,0l0.1,0.1c-0.3,0-0.8,0.1-1.1,0.1c0.2-0.3,0.6-0.1,0.8-0.1c-0.1-0.2-0.3-0.3-0.5-0.3
						c-0.1,0-0.2,0-0.1,0.1c0.1-0.1,0-0.1,0.1,0l0,0.1c-0.2,0-0.2-0.1-0.3-0.2l-0.2,0.2c-0.4-0.4-0.8,0.2-1.1,0.1c0,0-0.1,0-0.1,0
						c-0.2-0.4-1.3,0.3-1.6,0c-0.2-0.2-2.6,0-2.9,0.1l0-0.3l-0.2,0c0.1,0.2,0,0.1,0.1,0.1l0,0.2l-0.4,0l0-0.3c-0.2,0-0.3,0-0.4,0.1
						l0,0.1l0.1-0.1l0,0.2l-0.5,0l0-0.1c0.1-0.1,0-0.1,0.1,0l0-0.2c-0.3,0.1-0.2,0.2-0.5,0.2c0-0.3,0.1,0,0.2-0.2
						c-0.2-0.1-0.7-0.2-0.7,0.1c-0.1-0.1,0,0-0.1-0.2c-0.2,0.3-0.6-0.1-0.9,0c0,0.1,0,0.1,0.1,0.1c0,0.1-0.2,0.1-0.2,0.2l0,0
						c0.1,0.1,0.1,0.1,0.2,0l0,0l0,0.3l-0.6,0c-0.3,0.1-0.3,0.5-0.6,0.5l0.1-0.2l-0.2,0l0,0.1l0.1,0c0,0.1,0,0.1-0.1,0.2
						c0.1,0.2,0.2,0.3,0.4,0.4l0,0.1L96.1,63l0,0.1c0.2,0.1,0.5,0.1,0.5,0.4c-0.2,0.2-0.8,0.4-1,0.3c0,0,0.1,0.3,0.1,0.3l0,0.4
						c-0.1,0.2-0.3,0.2-0.4,0.3l0,0.1l0.4,0c0.1,0.2,0.1,0.2,0.1,0.4l0.2,0.1l0,0.3l-0.2-0.2l0,0l0.1,0.3c0.1,0.1,0,0,0,0.2
						c0.2,0.2,0.5,0.5,0.7,0.5l-0.2,0.2c0,0.1,0.1,0.3,0.1,0.6c0.2,0,0.4,0,0.6,0.2l0-0.2l-0.2,0c0.1-0.1,0.1-0.1,0.2,0
						c0.1-0.1,0.1,0,0.1,0.1c-0.1,0,0,0-0.1,0.1c0.1,0,0.1,0,0.1,0.1l0-0.3c0.1,0.2,0.1,0.2,0.2,0.3c0.1,0,0.1,0,0.1-0.2l0.4,0
						l0.1,0.3l0,0L98,67.1l0-0.1l0.6,0c0,0.2,0,0.1,0,0.3c0.1,0.1,0,0,0.1,0l0.1,0l-0.1-0.2c0.2,0,0.4,0,0.6,0.3l0,0
						c0-0.2,0-0.1-0.1-0.2c0.1,0,0.2,0,0.3-0.1l0.1,0.2l-0.1,0l0,0.2 M116.8,61.7C116.8,61.7,116.8,61.7,116.8,61.7
						C116.8,61.7,116.7,61.7,116.8,61.7c-0.1,0-0.2,0-0.2,0c0-0.1,0.1-0.2,0.1-0.2c0,0,0,0,0,0L116.8,61.7L116.8,61.7
						c0.1-0.2,0-0.3,0-0.4l-0.2,0.1c0-0.6-0.3-2.2-0.3-2.7c0.2-0.1,0.2,0,0.4,0c-0.1,0-0.1,0-0.1,0c-0.1,0,0,0.4,0,0.6
						c0,0.2,0.1,0.3,0.1,0.3l0.1,0l0-0.1l0,0c0.4,0.1-0.1,0.4,0,0.6c0,0,0,1,0.1,1c0,0,0.1,0-0.1,0.1c-0.1,0.1,0,0.1,0,0.1l0,0
						c0.1-0.1,0-0.1,0.2-0.1c0,0,0.1-1.1,0.2-1.1c0,0.1-0.1,1.1-0.2,1.2l0.2-0.1c-0.1,0.2-0.1,0.4,0,0.6
						C117,61.7,116.9,61.7,116.8,61.7z"/>
				</g>
				<path class="st0" d="M38.6,51.6"/>
			</g>
		</g>
	</g>
</g>
</svg>
